PathFileType	4	(X/Y/Z)	
DataRate	CameraRate	NumFrames	NumMarkers	Units	OrigDataRate	OrigDataStartFrame	OrigNumFrames
100	100	4	41	m	100	96	110
Frame#	Time	LELB			LSHO			RSHO			LUPA			LBHD			RUPA			RBHD			C7			RWRB			LWRB			RELB			RBAK			LANK			LKNE			LPSI			T10			LBTO			RPSI			RKNE			LTIB			RTIB			LTHI			RBTO			RTOE			RANK			RHEE			RTHI			LHEE			LFRM			LWRA			RFRM			LFIN			RFIN			RFHD			RWRA			RASI			LTOE			STRN			CLAV			LASI			LFHD			
		X1	Y1	Z1	X2	Y2	Z2	X3	Y3	Z3	X4	Y4	Z4	X5	Y5	Z5	X6	Y6	Z6	X7	Y7	Z7	X8	Y8	Z8	X9	Y9	Z9	X10	Y10	Z10	X11	Y11	Z11	X12	Y12	Z12	X13	Y13	Z13	X14	Y14	Z14	X15	Y15	Z15	X16	Y16	Z16	X17	Y17	Z17	X18	Y18	Z18	X19	Y19	Z19	X20	Y20	Z20	X21	Y21	Z21	X22	Y22	Z22	X23	Y23	Z23	X24	Y24	Z24	X25	Y25	Z25	X26	Y26	Z26	X27	Y27	Z27	X28	Y28	Z28	X29	Y29	Z29	X30	Y30	Z30	X31	Y31	Z31	X32	Y32	Z32	X33	Y33	Z33	X34	Y34	Z34	X35	Y35	Z35	X36	Y36	Z36	X37	Y37	Z37	X38	Y38	Z38	X39	Y39	Z39	X40	Y40	Z40	X41	Y41	Z41	X42	Y42	Z42	X43	Y43	Z43	

97	0.96	0.538927917480469	1.15722668457031	-1.02789126341933	0.450172393798828	1.49522241210938	-1.03688515990371	0.070100715637207	1.49549157714844	-1.02597863524551	0.497577758789063	1.35120935058594	-1.0391594442665	0.338160278320312	1.63304443359375	-1.04013415282363	-0.00691780519485474	1.23378967285156	-1.00441849272842	0.187770523071289	1.64084875488281	-1.04020149748916	0.253856796264648	1.53530969238281	-1.09239696639175	0.00455957508087158	0.881080017089844	-0.897929082328026	0.5475068359375	0.877743591308594	-1.01409731047744	-0.0239607124328613	1.14126733398438	-0.983118413382714	0.109252685546875	1.43481225585937	-1.12348866980666	0.371937591552734	0.0973921813964844	-0.661777699881737	0.408787445068359	0.521090881347656	-0.850367207938378	0.290998901367187	1.06961401367188	-1.13877769129867	0.266310119628906	1.25555847167969	-1.16484012740249	0.357708648681641	0.166957321166992	-0.4637177633583	0.224912200927734	1.06598559570313	-1.12902637045974	0.148211883544922	0.502074798583984	-1.14043708747024	0.415242248535156	0.379106201171875	-0.782960561209862	0.147444122314453	0.352621368408203	-1.20642728560561	0.438976013183594	0.667627807617188	-0.90663980620498	0.229235610961914	0.0341265716552734	-1.08848306792373	0.208649078369141	0.0378743438720703	-1.1473634418785	0.212990859985352	0.0814296875	-1.29923039763564	0.2609658203125	0.0570117492675781	-1.36130345671767	0.121297981262207	0.652423828125	-1.06891306059951	0.330176422119141	0.0346494369506836	-0.698386678153222	0.540591064453125	0.915704223632813	-0.971845021659081	0.492906005859375	0.881867858886719	-0.958982457572167	0.00175949847698212	0.937749145507813	-0.882025624686425	0.535625122070313	0.804523681640625	-0.92261928313369	0.0248671760559082	0.821187255859375	-0.793755208426659	0.200110153198242	1.71442138671875	-0.907393956595604	0.0604678688049316	0.906589965820312	-0.850161641532128	0.133812896728516	1.02958679199219	-0.943673238211815	0.375056213378906	0.139431976318359	-0.513015859061425	0.273107727050781	1.26715441894531	-0.92618422453994	0.264486999511719	1.39914367675781	-0.947462407523339	0.395990997314453	1.03646496582031	-0.967901082450097	0.328958923339844	1.70802307128906	-0.901590550833886
98	0.97	0.539022644042969	1.15458666992187	-1.02607969791517	0.451280120849609	1.49293774414063	-1.03541356021986	0.0711295394897461	1.4939287109375	-1.02392515689955	0.498143859863281	1.3487119140625	-1.03756463749037	0.338160278320312	1.63304443359375	-1.0521116116725	-0.00598591423034668	1.23235388183594	-1.00160621769056	0.189000152587891	1.63920190429688	-1.03859750492201	0.254916778564453	1.53344384765625	-1.09066844303236	0.00481992101669312	0.879860412597656	-0.894463685341931	0.548450805664062	0.875116149902344	-1.01442945987806	-0.0231077365875244	1.13984887695312	-0.980009263344861	0.110210342407227	1.432939453125	-1.121434148141	0.369800537109375	0.0958637542724609	-0.658603852578259	0.407980316162109	0.519791931152344	-0.845829804726697	0.291469207763672	1.06801599121094	-1.13625204784498	0.267108123779297	1.25343176269531	-1.16223550287709	0.355374359130859	0.165483947753906	-0.460049043007947	0.225687789916992	1.06408544921875	-1.12637993747816	0.147812637329102	0.5017705078125	-1.14130478031263	0.413946228027344	0.376972320556641	-0.779584718056775	0.147034286499023	0.353518157958984	-1.21051627857313	0.437898162841797	0.668151306152344	-0.90040249759779	0.229314895629883	0.0338717041015625	-1.10045630390272	0.208570709228516	0.0377508316040039	-1.15926682121382	0.212230056762695	0.0843511505126953	-1.30984546024428	0.260042755126953	0.0616791687011719	-1.37256558353529	0.121178321838379	0.651439453125	-1.06841928989515	0.327994476318359	0.0332208633422851	-0.695162446328259	0.541774353027344	0.913408569335938	-0.971250016518689	0.494086273193359	0.878678466796875	-0.959085267373181	0.00213906049728394	0.936460021972656	-0.878620911904431	0.537133056640625	0.800904541015625	-0.923672562905408	0.0248993511199951	0.820056213378906	-0.790180787392712	0.201423721313477	1.71289294433594	-0.905903138466931	0.0607758445739746	0.905155090332031	-0.846662385293103	0.133818740844727	1.02758801269531	-0.940988389321423	0.372757781982422	0.137887420654297	-0.509592194863416	0.273885192871094	1.26552868652344	-0.924067246743298	0.265463806152344	1.39752124023438	-0.945406297036267	0.396122650146484	1.03448059082031	-0.965243531533337	0.330389099121094	1.70655090332031	-0.899956452675915
99	0.98	0.539081176757813	1.15215515136719	-1.02422131081677	0.452459594726562	1.49093237304688	-1.03395538064099	0.0722341156005859	1.49258459472656	-1.02183552285291	0.498827728271484	1.34661193847656	-1.03575632973767	0.338160278320312	1.63304443359375	-1.06408907052136	-0.00495473432540894	1.23113134765625	-0.998909207545289	0.190236877441406	1.63785009765625	-1.03697814675427	0.256013244628906	1.53181396484375	-1.08890687295056	0.00506953763961792	0.878792785644531	-0.891323193751344	0.549332214355469	0.872664123535156	-1.01472297402478	-0.0221833190917969	1.13869750976563	-0.977026440821656	0.111287269592285	1.43123779296875	-1.11932893487073	0.367807464599609	0.0931557540893554	-0.658696850977906	0.406936614990234	0.519400939941406	-0.840717480860719	0.291992492675781	1.06659753417969	-1.13328144951917	0.267927978515625	1.25145092773438	-1.15966256638623	0.352407196044922	0.160551422119141	-0.459497693263063	0.226456619262695	1.06226000976562	-1.12346143075086	0.147384353637695	0.501262847900391	-1.14141982003308	0.412812103271484	0.374993804931641	-0.776558209620484	0.14640559387207	0.354344848632813	-1.21384143944837	0.436696807861328	0.669295837402344	-0.893557934962281	0.229411315917969	0.0336288757324219	-1.11248919793225	0.208481842041016	0.037651741027832	-1.17112397452451	0.211005004882813	0.0877550277709961	-1.32023925515271	0.258875518798828	0.0668643264770508	-1.38357603188611	0.121003326416016	0.650308349609375	-1.06741998787976	0.326230407714844	0.0307380657196045	-0.696063519679078	0.54278369140625	0.911361022949219	-0.970689313136109	0.495209136962891	0.875655395507813	-0.95927166482068	0.00252855610847473	0.935288208007813	-0.875504956446656	0.53862451171875	0.797577941894531	-0.92462191506482	0.0248961601257324	0.81900244140625	-0.786969372950562	0.202816787719727	1.71165270996094	-0.904420758448609	0.0610503768920898	0.9038935546875	-0.843440777979859	0.133862014770508	1.02573425292969	-0.938160428248414	0.369993865966797	0.13391227722168	-0.509311230860719	0.274803375244141	1.26418884277344	-0.921714245997437	0.266511108398438	1.39622473144531	-0.943261304102906	0.396565216064453	1.03355883789063	-0.96157113381482	0.331893157958984	1.70532165527344	-0.898350690089234
100	0.99	0.539213562011719	1.15005151367187	-1.02229715833751	0.453715545654297	1.48923193359375	-1.03249233350841	0.0734332275390625	1.49147143554688	-1.01971936903087	0.499542907714844	1.34458178710938	-1.0340853968629	0.338160278320312	1.63304443359375	-1.07606652937023	-0.00385017108917236	1.23012585449219	-0.996336175061147	0.191484619140625	1.63676000976562	-1.03535987196056	0.257229705810547	1.53036340332031	-1.08712562666027	0.00532780981063843	0.877837341308594	-0.888517296887319	0.550141723632813	0.870491271972656	-1.01491643629162	-0.0212000522613525	1.13781237792969	-0.974194726086538	0.11238956451416	1.42977587890625	-1.1171350718507	0.365784240722656	0.0891239929199218	-0.661980279065053	0.406450592041016	0.520083374023438	-0.834867333508413	0.292675933837891	1.06525366210938	-1.12995903883068	0.268516418457031	1.24980334472656	-1.1570930758485	0.348926361083984	0.153625106811523	-0.461818047619741	0.22719157409668	1.06065051269531	-1.1201551600465	0.146829895019531	0.500629913330078	-1.14089862547008	0.412277008056641	0.373857879638672	-0.773216546154897	0.145572021484375	0.355362365722656	-1.21641396055309	0.435443176269531	0.670588562011719	-0.886547021008413	0.229442276000977	0.0335171279907227	-1.12456800184337	0.208393493652344	0.0375798416137695	-1.18296884522526	0.209396011352539	0.0917137985229492	-1.33028508863537	0.257409027099609	0.0726308364868164	-1.39433039198009	0.12094856262207	0.649103759765625	-1.06599378309337	0.324613983154297	0.0271204452514648	-0.70039879713146	0.543593200683594	0.909452941894531	-0.970425576306264	0.496292999267578	0.872876220703125	-0.959376992321889	0.00294945383071899	0.934266052246094	-0.872680474377553	0.54009326171875	0.794630554199219	-0.925386315442007	0.0248697776794434	0.81802880859375	-0.784123711682241	0.204264541625977	1.71069128417969	-0.902932824231069	0.0613640937805176	0.90276220703125	-0.840543877697866	0.133955795288086	1.02410437011719	-0.935111672497671	0.366860443115234	0.127583717346191	-0.512019768811147	0.275878448486328	1.263154296875	-0.919100213147085	0.267681396484375	1.39521264648438	-0.941016564465444	0.396827819824219	1.03215698242188	-0.95826110181896	0.333425476074219	1.70436669921875	-0.896794488049428
